M48
;Layer_Color=9474304
;FILE_FORMAT=2:4
INCH,LZ
;TYPE=PLATED
T1F00S00C0.0250
T2F00S00C0.0280
T3F00S00C0.0320
T4F00S00C0.0354
T5F00S00C0.0394
%
T01
X04775Y04535
X04875
X04975
X05075
X05175
X05275
X05375
X05475
X05575
X05675
X05775
X05875
X05975
X06075
Y04965
X05975
X05875
X05775
X05675
X05575
X05475
X05375
X05275
X05175
X05075
X04975
X04875
X04775
T02
X0664Y0327
T03
X05993Y03107
X044125Y033855
X0415Y03399
X04123Y0393
X04127Y04092
X04073Y0423
Y04343
X04146Y04375
X04189Y04509
X04065Y04519
X04386Y04539
X04435Y04605
X04514Y04524
X044995Y043215
X04569Y04246
X04443Y04214
X0428Y04159
X04495Y0383
X04439Y03672
X03728Y03606
X036335Y0349
X04776Y038291
X05005Y0387
X052301Y03755
X05253Y04035
Y04282
X05611Y04274
X0546Y03855
X0539Y03417
X0559Y03442
X05926Y03792
X06139Y04327
X04919Y04367
X05016Y03275
X064445Y03625
X06501Y037315
X06372Y03795
X06698Y03827
Y04146
X068774Y04205
X0723Y0414
X07171Y04654
X0634Y041261
X06583Y0358
X06404Y04987
X06747Y05005
X06835Y0507
X06956Y050746
X07047Y053066
X06885Y05385
X0697Y05625
X071425Y05886
X07573Y05891
X0751Y05555
X07525Y0549
X0755Y05279
Y05155
X075235Y05055
X07485Y048985
X07428Y04818
X07372Y0493
X072905Y050404
X06158Y05231
X06187Y04817
X0581Y04815
X05765Y0469
X05418Y05072
X05278Y05312
X05122Y05398
X04995Y05365
X04881Y05398
X04815Y05655
X0526Y05705
X0451Y05728
X04365Y05765
X04384Y05888
X043Y05665
X04148Y05708
X0411Y05849
X04185Y06001
X040785Y06131
X04022Y0619
X0396Y06142
X03861Y06047
X04072Y05555
X04077Y0543
X0411Y053605
X04126Y05133
X04088Y05013
Y04841
X04206Y04783
X04202Y047
X043615Y05072
X04421Y05174
Y05431
X045605Y054714
X04599Y05012
X046225Y061595
X07356Y06284
T04
X0386Y0353
X0396
Y0363
X0386
Y0373
X0396
Y0383
X0386
Y0393
X0396
Y0403
X0386
Y0413
X0396
Y0423
X0386
Y0433
X0396
Y0443
X0386
Y0453
X0396
Y0463
X0386
X04785Y03625
X04885
X04985
X05085
X05185
X05285
X05385
X05485
X05585
X05685
X05785
X05885
X05985
X06085
X0569Y03165
X0559
X0549
X0539
X0529
X07155Y0317
Y0327
X07255
Y0317
X07355
Y0327
X07455
Y0317
X07555
Y0327
X07655
Y0317
X07755
Y0327
X07785Y03555
Y03655
Y03755
Y03855
Y03955
Y04055
Y04155
Y04255
Y04355
Y04455
Y04555
Y04655
X07685
Y04555
Y04455
Y04355
Y04255
Y04155
Y04055
Y03955
Y03855
Y03755
Y03655
Y03555
Y04755
Y04855
Y04955
Y05055
Y05155
Y05255
Y05355
Y05455
Y05555
Y05655
Y05755
Y05855
Y05955
X07785
Y05855
Y05755
Y05655
Y05555
Y05455
Y05355
Y05255
Y05155
Y05055
Y04955
Y04855
Y04755
X06075Y0584
X05975
X05875
X05775
X05675
X05575
X05475
X05375
X05275
X05175
X05075
X04975
X04875
X04775
X0396Y0583
Y0573
Y0563
Y0553
Y0543
Y0533
Y0523
Y0513
Y0503
Y0493
Y0483
Y0473
X0386
Y0483
Y0493
Y0503
Y0513
Y0523
Y0533
Y0543
Y0553
Y0563
Y0573
Y0583
Y0593
X0396
T05
X0428Y030969
Y033331
X04465Y03215
M30
