%FSLAX24Y24*%
%MOIN*%
G70*
G01*
G75*
G04 Layer_Color=16711935*
%ADD10R,0.0236X0.0709*%
%ADD11R,0.0551X0.0591*%
%ADD12R,0.0591X0.0551*%
%ADD13O,0.0866X0.0236*%
%ADD14R,0.0630X0.0630*%
%ADD15R,0.0787X0.0472*%
%ADD16R,0.0591X0.0630*%
%ADD17C,0.0250*%
%ADD18R,0.0591X0.0591*%
%ADD19C,0.0591*%
%ADD20R,0.0591X0.0591*%
%ADD21R,0.0500X0.1000*%
%ADD22O,0.0500X0.1000*%
%ADD23C,0.0394*%
%ADD24C,0.0620*%
%ADD25C,0.0500*%
%ADD26C,0.0098*%
%ADD27C,0.0236*%
%ADD28C,0.0100*%
%ADD29C,0.0079*%
%ADD30C,0.0080*%
%ADD31R,0.0316X0.0789*%
%ADD32R,0.0631X0.0671*%
%ADD33R,0.0671X0.0631*%
%ADD34O,0.0946X0.0316*%
%ADD35R,0.0710X0.0710*%
%ADD36R,0.0867X0.0552*%
%ADD37R,0.0671X0.0710*%
%ADD38R,0.0671X0.0671*%
%ADD39C,0.0671*%
%ADD40R,0.0671X0.0671*%
%ADD41R,0.0580X0.1080*%
%ADD42O,0.0580X0.1080*%
%ADD43C,0.0474*%
%ADD44C,0.0700*%
%ADD45C,0.0580*%
D38*
X76850Y59550D02*
D03*
X39600Y35300D02*
D03*
D39*
X77850Y59550D02*
D03*
X76850Y58550D02*
D03*
X77850D02*
D03*
X76850Y57550D02*
D03*
X77850D02*
D03*
X76850Y56550D02*
D03*
X77850D02*
D03*
X76850Y55550D02*
D03*
X77850D02*
D03*
X76850Y54550D02*
D03*
X77850D02*
D03*
X76850Y53550D02*
D03*
X77850D02*
D03*
X76850Y52550D02*
D03*
X77850D02*
D03*
X76850Y51550D02*
D03*
X77850D02*
D03*
X76850Y50550D02*
D03*
X77850D02*
D03*
X76850Y49550D02*
D03*
X77850D02*
D03*
X76850Y48550D02*
D03*
X77850D02*
D03*
X76850Y47550D02*
D03*
X77850D02*
D03*
X76850Y46550D02*
D03*
X77850D02*
D03*
X76850Y45550D02*
D03*
X77850D02*
D03*
X76850Y44550D02*
D03*
X77850D02*
D03*
X76850Y43550D02*
D03*
X77850D02*
D03*
X76850Y42550D02*
D03*
X77850D02*
D03*
X76850Y41550D02*
D03*
X77850D02*
D03*
X76850Y40550D02*
D03*
X77850D02*
D03*
X76850Y39550D02*
D03*
X77850D02*
D03*
X76850Y38550D02*
D03*
X77850D02*
D03*
X76850Y37550D02*
D03*
X77850D02*
D03*
X76850Y36550D02*
D03*
X77850D02*
D03*
X76850Y35550D02*
D03*
X77850D02*
D03*
X71550Y32700D02*
D03*
X72550Y31700D02*
D03*
Y32700D02*
D03*
X73550Y31700D02*
D03*
Y32700D02*
D03*
X74550Y31700D02*
D03*
Y32700D02*
D03*
X75550Y31700D02*
D03*
Y32700D02*
D03*
X76550Y31700D02*
D03*
Y32700D02*
D03*
X77550Y31700D02*
D03*
Y32700D02*
D03*
X38600Y35300D02*
D03*
X39600Y36300D02*
D03*
X38600D02*
D03*
X39600Y37300D02*
D03*
X38600D02*
D03*
X39600Y38300D02*
D03*
X38600D02*
D03*
X39600Y39300D02*
D03*
X38600D02*
D03*
X39600Y40300D02*
D03*
X38600D02*
D03*
X39600Y41300D02*
D03*
X38600D02*
D03*
X39600Y42300D02*
D03*
X38600D02*
D03*
X39600Y43300D02*
D03*
X38600D02*
D03*
X39600Y44300D02*
D03*
X38600D02*
D03*
X39600Y45300D02*
D03*
X38600D02*
D03*
X39600Y46300D02*
D03*
X38600D02*
D03*
X39600Y47300D02*
D03*
X38600D02*
D03*
X39600Y48300D02*
D03*
X38600D02*
D03*
X39600Y49300D02*
D03*
X38600D02*
D03*
X39600Y50300D02*
D03*
X38600D02*
D03*
X39600Y51300D02*
D03*
X38600D02*
D03*
X39600Y52300D02*
D03*
X38600D02*
D03*
X39600Y53300D02*
D03*
X38600D02*
D03*
X39600Y54300D02*
D03*
X38600D02*
D03*
X39600Y55300D02*
D03*
X38600D02*
D03*
X39600Y56300D02*
D03*
X38600D02*
D03*
X39600Y57300D02*
D03*
X38600D02*
D03*
X39600Y58300D02*
D03*
X38600D02*
D03*
X39600Y59300D02*
D03*
X38600D02*
D03*
X60750Y58400D02*
D03*
X59750D02*
D03*
X58750D02*
D03*
X57750D02*
D03*
X56750D02*
D03*
X55750D02*
D03*
X54750D02*
D03*
X53750D02*
D03*
X52750D02*
D03*
X51750D02*
D03*
X50750D02*
D03*
X49750D02*
D03*
X48750D02*
D03*
X47850Y36250D02*
D03*
X48850D02*
D03*
X49850D02*
D03*
X50850D02*
D03*
X51850D02*
D03*
X52850D02*
D03*
X53850D02*
D03*
X54850D02*
D03*
X55850D02*
D03*
X56850D02*
D03*
X57850D02*
D03*
X58850D02*
D03*
X59850D02*
D03*
X56900Y31650D02*
D03*
X55900D02*
D03*
X54900D02*
D03*
X53900D02*
D03*
D40*
X71550Y31700D02*
D03*
X47750Y58400D02*
D03*
X60850Y36250D02*
D03*
X52900Y31650D02*
D03*
D41*
X47750Y45350D02*
D03*
D42*
X48750D02*
D03*
X49750D02*
D03*
X50750D02*
D03*
X51750D02*
D03*
X52750D02*
D03*
X53750D02*
D03*
X54750D02*
D03*
X55750D02*
D03*
X56750D02*
D03*
X57750D02*
D03*
X58750D02*
D03*
X59750D02*
D03*
X60750D02*
D03*
X47750Y49650D02*
D03*
X48750D02*
D03*
X49750D02*
D03*
X50750D02*
D03*
X51750D02*
D03*
X52750D02*
D03*
X53750D02*
D03*
X54750D02*
D03*
X55750D02*
D03*
X56750D02*
D03*
X57750D02*
D03*
X58750D02*
D03*
X59750D02*
D03*
X60750D02*
D03*
D43*
X44650Y32150D02*
D03*
X42800Y33331D02*
D03*
Y30969D02*
D03*
D44*
X44350Y46050D02*
D03*
X43650Y57650D02*
D03*
X43000Y56650D02*
D03*
X69700Y56250D02*
D03*
X67470Y50050D02*
D03*
X68350Y50700D02*
D03*
X51220Y53980D02*
D03*
X49950Y53650D02*
D03*
X48150Y56550D02*
D03*
X52600Y57050D02*
D03*
X52780Y53120D02*
D03*
X50050Y38700D02*
D03*
X54600Y38550D02*
D03*
X56110Y42740D02*
D03*
X61390Y43270D02*
D03*
X45605Y54714D02*
D03*
X61870Y48170D02*
D03*
X61580Y52310D02*
D03*
X43840Y58880D02*
D03*
X44125Y33855D02*
D03*
X41500Y33990D02*
D03*
X57650Y46900D02*
D03*
X65830Y35800D02*
D03*
X63400Y41261D02*
D03*
X45990Y50120D02*
D03*
X58100Y48150D02*
D03*
X53900Y34170D02*
D03*
X40770Y54300D02*
D03*
X40730Y42300D02*
D03*
X40785Y61310D02*
D03*
X40650Y45190D02*
D03*
X44390Y36720D02*
D03*
X44995Y43215D02*
D03*
X43860Y45390D02*
D03*
X41890Y45090D02*
D03*
X72905Y50404D02*
D03*
X46225Y61595D02*
D03*
X40720Y55550D02*
D03*
X50160Y32750D02*
D03*
X44950Y38300D02*
D03*
X41100Y53605D02*
D03*
X41480Y57080D02*
D03*
X41100Y58490D02*
D03*
X41850Y60010D02*
D03*
X38610Y60470D02*
D03*
X37280Y36060D02*
D03*
X41230Y39300D02*
D03*
X71710Y46540D02*
D03*
X40880Y48410D02*
D03*
X41260Y51330D02*
D03*
X40880Y50130D02*
D03*
X40220Y61900D02*
D03*
X71425Y58860D02*
D03*
X75100Y55550D02*
D03*
X39600Y61420D02*
D03*
X74280Y48180D02*
D03*
X44430Y42140D02*
D03*
X42800Y41590D02*
D03*
X42060Y47830D02*
D03*
X59930Y31070D02*
D03*
X44210Y51740D02*
D03*
X45100Y57280D02*
D03*
X45690Y42460D02*
D03*
X41270Y40920D02*
D03*
X41460Y43750D02*
D03*
X74850Y48985D02*
D03*
X64040Y49870D02*
D03*
X55900Y34420D02*
D03*
X69560Y50746D02*
D03*
X52530Y40350D02*
D03*
Y42820D02*
D03*
X43615Y50720D02*
D03*
X44210Y54310D02*
D03*
X36335Y34900D02*
D03*
X73560Y62840D02*
D03*
X59260Y37920D02*
D03*
X42020Y47000D02*
D03*
X40730Y43430D02*
D03*
X45140Y45240D02*
D03*
X75235Y50550D02*
D03*
X73720Y49300D02*
D03*
X75250Y54900D02*
D03*
X75500Y52790D02*
D03*
X75730Y58910D02*
D03*
X70470Y53066D02*
D03*
X66980Y38270D02*
D03*
Y41460D02*
D03*
X52301Y37550D02*
D03*
X65010Y37315D02*
D03*
X64445Y36250D02*
D03*
X63720Y37950D02*
D03*
X68850Y53850D02*
D03*
X47760Y38291D02*
D03*
X49190Y43670D02*
D03*
X68774Y42050D02*
D03*
X72300Y41400D02*
D03*
X48810Y53980D02*
D03*
X75500Y51550D02*
D03*
X54180Y50720D02*
D03*
D45*
X66400Y32700D02*
D03*
M02*
